<svg xmlns="http://www.w3.org/2000/svg" viewBox="0 0 31.93 65.85"><defs><style>.cls-1,.cls-2{fill:#c9f3f4;}.cls-2{opacity:0.6;}.cls-3,.cls-4{fill:none;stroke-linecap:round;stroke-linejoin:round;}.cls-3{stroke:#88ffd7;}.cls-4{stroke:#fcfcfc;stroke-width:3px;opacity:0.2;}</style></defs><g id="레이어_2" data-name="레이어 2"><g id="레이어_1-2" data-name="레이어 1"><path class="cls-1" d="M11.39,64.17S9.18,61.71,9,59.89"/><line class="cls-1" x1="2.01" y1="25.19" x2="16.13" y2="25.19"/><line class="cls-1" x1="16.13" y1="49.3" x2="1.59" y2="49.3"/><line class="cls-1" x1="10.39" y1="8.99" x2="16.13" y2="8.99"/><path class="cls-2" d="M31.32,29.1a6.07,6.07,0,0,0-1.61-3.93c3.63-4.33,0-7.33,0-7.33L21.33,9v-8H15.59V1h-5.2V9L2,17.87s-3.63,3,0,7.32A6.11,6.11,0,0,0,.4,29.13V46.49A6.33,6.33,0,0,0,1.59,49.3,10.19,10.19,0,0,0,.4,53.59v6.33S.3,65.77,5,65.77a8.31,8.31,0,0,0,6-2s1.27,1.83,4.59,2h.07c.16,0,.3,0,.47,0v-.07c3.32-.19,4.6-2,4.6-2a8.29,8.29,0,0,0,6,2c4.71,0,4.61-5.85,4.61-5.85V53.56a10,10,0,0,0-1.18-4.28,6.47,6.47,0,0,0,1.18-2.82Z"/><path class="cls-1" d="M20.34,64.15s2.2-2.47,2.42-4.29"/><line class="cls-1" x1="29.71" y1="25.17" x2="15.59" y2="25.17"/><line class="cls-1" x1="30.14" y1="49.28" x2="15.59" y2="49.28"/><line class="cls-1" x1="21.33" y1="8.96" x2="15.59" y2="8.96"/><path class="cls-3" d="M16.23.53H10.49v8L2.12,17.42s-3.64,3,0,7.33A6.06,6.06,0,0,0,.5,28.68V46a6.4,6.4,0,0,0,1.19,2.82A10.12,10.12,0,0,0,.5,53.14v6.34s-.09,5.85,4.61,5.85a8.35,8.35,0,0,0,6-2s1.39,2.06,5.13,2.06"/><path class="cls-3" d="M11.49,63.73s-2.21-2.47-2.42-4.29"/><line class="cls-3" x1="2.12" y1="24.75" x2="16.23" y2="24.75"/><line class="cls-3" x1="16.23" y1="48.86" x2="1.69" y2="48.86"/><line class="cls-3" x1="10.49" y1="8.55" x2="16.23" y2="8.55"/><path class="cls-3" d="M15.69.5h5.74v8l8.38,8.87s3.63,3,0,7.33a6.07,6.07,0,0,1,1.61,3.93V46a6.4,6.4,0,0,1-1.18,2.81,10,10,0,0,1,1.18,4.28v6.34s.1,5.85-4.6,5.85a8.36,8.36,0,0,1-6-2s-1.39,2.06-5.14,2.06"/><path class="cls-3" d="M20.44,63.7s2.21-2.47,2.42-4.28"/><line class="cls-3" x1="29.81" y1="24.72" x2="15.69" y2="24.72"/><line class="cls-3" x1="30.24" y1="48.83" x2="15.69" y2="48.83"/><line class="cls-3" x1="21.43" y1="8.52" x2="15.69" y2="8.52"/><line class="cls-4" x1="25.13" y1="30.48" x2="25.13" y2="42.86"/></g></g></svg>