<svg xmlns="http://www.w3.org/2000/svg" viewBox="0 0 40.32 65.11"><defs><style>.cls-1{fill:#c9f3f4;opacity:0.6;}.cls-2,.cls-3{fill:none;stroke-linecap:round;stroke-linejoin:round;}.cls-2{stroke:#88ffd7;}.cls-3{stroke:#fcfcfc;stroke-width:3px;opacity:0.2;}</style></defs><g id="레이어_2" data-name="레이어 2"><g id="레이어_1-2" data-name="레이어 1"><path class="cls-1" d="M20.33,9.75A10.61,10.61,0,0,0,14,7.47V0H.67V59.5s.3,4.65,4,4.65H35.34S40,63.22,40,58.58V37Zm9.44,31.17H18.22S14,41.89,14,35.37V20.66s-.92-9.47,2.79-3.89L31.63,38.13S35.34,40.92,29.77,40.92Z"/><path class="cls-2" d="M7.3.5H.5V60s.3,4.65,4,4.65H35.17s4.65-.93,4.65-5.58V37.41L20.16,10.21A10.61,10.61,0,0,0,13.8,7.93V.5Z"/><line class="cls-2" x1="13.8" y1="7.93" x2="0.5" y2="7.93"/><path class="cls-2" d="M13.8,21.12s-.93-9.47,2.79-3.9L31.46,38.59s3.71,2.79-1.86,2.79H18.05s-4.25,1-4.25-5.55Z"/><line class="cls-2" x1="0.5" y1="56.07" x2="39.82" y2="56.07"/><line class="cls-3" x1="4.93" y1="38.33" x2="4.93" y2="50.71"/></g></g></svg>