<svg xmlns="http://www.w3.org/2000/svg" viewBox="0 0 27.59 68.62"><defs><style>.cls-1{fill:#88ffd7;}</style></defs><g id="레이어_2" data-name="레이어 2"><g id="레이어_1-2" data-name="레이어 1"><path class="cls-1" d="M.64,34.44H27.23M.64,59.56H27.23M14.7,68.12a.5.5,0,0,0-.5-.5H6.1c-3.61,0-4.87-2.2-5.1-2.66V32.71a16.77,16.77,0,0,1,1.43-5.54l3.46-7.84,1.65-1.45a.5.5,0,0,0,.17-.38V8.33H14.2a.5.5,0,0,0,.5-.5.5.5,0,0,0-.5-.5h-7a.5.5,0,0,0-.5.5v9.45L5.15,18.65a.52.52,0,0,0-.13.17L1.51,26.76A17.81,17.81,0,0,0,0,32.71V65.07a.39.39,0,0,0,0,.18c0,.14,1.42,3.37,6.06,3.37h8.1A.5.5,0,0,0,14.7,68.12Zm12.85-2.87a.39.39,0,0,0,0-.18V32.71a17.81,17.81,0,0,0-1.51-5.95l-3.51-7.94a.7.7,0,0,0-.13-.17l-1.56-1.37V7.83a.5.5,0,0,0-.5-.5h-7a.5.5,0,0,0-.5.5.5.5,0,0,0,.5.5h6.49V17.5a.5.5,0,0,0,.17.38l1.65,1.45,3.46,7.84a16.77,16.77,0,0,1,1.43,5.54V65c-.23.46-1.5,2.66-5.1,2.66h-8.1a.5.5,0,0,0-.5.5.5.5,0,0,0,.5.5h8.1C26.13,68.62,27.5,65.39,27.55,65.25Zm0-30.65a.51.51,0,0,0-.5-.5H.5a.5.5,0,0,0-.5.5.5.5,0,0,0,.5.5H27.09A.5.5,0,0,0,27.59,34.6Zm0,25.12a.5.5,0,0,0-.5-.5H.5a.5.5,0,0,0,0,1H27.09A.5.5,0,0,0,27.59,59.72ZM18.29,7.88a.5.5,0,0,0,.48-.52l-.15-4.18a.53.53,0,0,0-.15-.33C15.87.25,8.5,0,8.19,0a.59.59,0,0,0-.4.17L6.54,1.63a.52.52,0,0,0-.11.43.5.5,0,0,0,.27.35L9.33,3.67V7.38a.5.5,0,0,0,.5.5.5.5,0,0,0,.5-.5v-4a.5.5,0,0,0-.28-.45L7.72,1.79,8.39,1c1.24.06,7,.45,9.24,2.41l.14,4a.5.5,0,0,0,.5.48ZM8.05,53.6V41.22a1.5,1.5,0,0,0-3,0V53.6a1.5,1.5,0,0,0,3,0Z"/></g></g></svg>