<svg xmlns="http://www.w3.org/2000/svg" viewBox="0 0 27.59 68.62"><defs><style>.cls-1{fill:#c9f3f4;}.cls-2{opacity:0.6;}.cls-3,.cls-4{fill:none;stroke-linecap:round;stroke-linejoin:round;}.cls-3{stroke:#88ffd7;}.cls-4{stroke:#fcfcfc;stroke-width:3px;opacity:0.2;}</style></defs><g id="레이어_2" data-name="레이어 2"><g id="레이어_1-2" data-name="레이어 1"><line class="cls-1" x1="0.64" y1="34.44" x2="27.23" y2="34.44"/><line class="cls-1" x1="0.64" y1="59.56" x2="27.23" y2="59.56"/><g class="cls-2"><path class="cls-1" d="M25.76,26.8l-3.51-7.94-1.73-1.52V7.66H7.35v9.68L5.62,18.86,2.11,26.8A17.41,17.41,0,0,0,.64,32.55V64.9S1.89,68,6.24,68H21.63c4.36,0,5.6-3.06,5.6-3.06V32.55A17.41,17.41,0,0,0,25.76,26.8Z"/><path class="cls-1" d="M10,7.21h8.44L18.26,3C15.77.55,8.31.33,8.31.33L7.06,1.79,10,3.19Z"/></g><path class="cls-3" d="M14.2,68.12H6.1c-4.36,0-5.6-3.05-5.6-3.05V32.71A17.32,17.32,0,0,1,2,27L5.48,19,7.21,17.5V7.83h7"/><path class="cls-3" d="M13.39,68.12h8.1c4.35,0,5.6-3.05,5.6-3.05V32.71A17.32,17.32,0,0,0,25.62,27L22.11,19,20.38,17.5V7.83h-7"/><line class="cls-3" x1="0.5" y1="34.6" x2="27.09" y2="34.6"/><line class="cls-3" x1="0.5" y1="59.72" x2="27.09" y2="59.72"/><path class="cls-3" d="M9.83,7.38v-4L6.92,2,8.17.5s7.46.21,10,2.7l.15,4.18"/><line class="cls-4" x1="6.55" y1="41.22" x2="6.55" y2="53.6"/></g></g></svg>