<svg xmlns="http://www.w3.org/2000/svg" viewBox="0 0 41 61.38">
    <defs>
        <style>
            .cls-1 {
                fill: #88ffd7;
            }
        </style>
    </defs>
    <g id="레이어_2" data-name="레이어 2">
        <g id="레이어_1-2" data-name="레이어 1">
            <path class="cls-1"
                d="M20.41,61.32H8.06a.5.5,0,0,1-.5-.5V58.09h-1A.5.5,0,0,1,6,57.65L2.42,27.83a2.68,2.68,0,0,1-1.71-.55A2.12,2.12,0,0,1,0,25.57V20.64A2.2,2.2,0,0,1,.5,19.07a1.77,1.77,0,0,1,.92-.51C1.61,15.71,3.39,0,18.29,0a.51.51,0,0,1,.47.34c0,.06.49,1.38,1.65,1.38a.51.51,0,0,1,.5.5.5.5,0,0,1-.5.5A2.8,2.8,0,0,1,18,1C2.94,1.26,2.4,18.85,2.39,19a.48.48,0,0,1-.5.48.82.82,0,0,0-.65.24,1.34,1.34,0,0,0-.24.84v5a1.16,1.16,0,0,0,.35.95,2,2,0,0,0,1.42.29.52.52,0,0,1,.38.1.46.46,0,0,1,.19.34L7,57.09H8.06a.5.5,0,0,1,.5.5v2.73H20.41a.5.5,0,1,1,0,1ZM20.91,19a.51.51,0,0,0-.5-.5H1.89a.51.51,0,0,0-.5.5.5.5,0,0,0,.5.5H20.41A.5.5,0,0,0,20.91,19Zm0,8.3a.5.5,0,0,0-.5-.5H2.86a.5.5,0,0,0-.5.5.5.5,0,0,0,.5.5H20.41A.51.51,0,0,0,20.91,27.31Zm0,30.28a.5.5,0,0,0-.5-.5H7.2a.5.5,0,0,0-.5.5.51.51,0,0,0,.5.5H20.41A.51.51,0,0,0,20.91,57.59Zm0-6a.5.5,0,0,0-.5-.5H5.8a.5.5,0,1,0,0,1H20.41A.5.5,0,0,0,20.91,51.59Zm0-7.24a.51.51,0,0,0-.5-.5H4.92a.5.5,0,0,0-.5.5.5.5,0,0,0,.5.5H20.41A.5.5,0,0,0,20.91,44.35ZM33.44,60.88V58.14h1a.5.5,0,0,0,.5-.43l3.61-29.82a2.66,2.66,0,0,0,1.7-.55A2.12,2.12,0,0,0,41,25.63V20.75a2.25,2.25,0,0,0-.49-1.62,1.69,1.69,0,0,0-.91-.51c-.2-2.86-2-18.56-16.87-18.56a.51.51,0,0,0-.48.34s-.47,1.38-1.64,1.38a.5.5,0,0,0,0,1,2.8,2.8,0,0,0,2.45-1.72c15,.25,15.54,17.29,15.56,18a.51.51,0,0,0,.5.49.84.84,0,0,1,.65.23,1.35,1.35,0,0,1,.24.9v4.93a1.19,1.19,0,0,1-.36.95,2,2,0,0,1-1.41.29.46.46,0,0,0-.38.1.5.5,0,0,0-.2.33L34,57.14h-1.1a.5.5,0,0,0-.5.5v2.74H20.6a.5.5,0,0,0-.5.5.5.5,0,0,0,.5.5H32.94A.5.5,0,0,0,33.44,60.88Zm6.17-41.81a.5.5,0,0,0-.5-.5H20.6a.5.5,0,0,0-.5.5.5.5,0,0,0,.5.5H39.11A.5.5,0,0,0,39.61,19.07Zm-1,8.3a.5.5,0,0,0-.5-.5H20.6a.5.5,0,0,0-.5.5.5.5,0,0,0,.5.5H38.15A.51.51,0,0,0,38.65,27.37ZM34.3,57.64a.5.5,0,0,0-.5-.5H20.6a.5.5,0,0,0-.5.5.5.5,0,0,0,.5.5H33.8A.5.5,0,0,0,34.3,57.64Zm1.41-6a.5.5,0,0,0-.5-.5H20.6a.5.5,0,0,0-.5.5.5.5,0,0,0,.5.5H35.21A.51.51,0,0,0,35.71,51.65Zm.87-7.24a.5.5,0,0,0-.5-.5H20.6a.5.5,0,1,0,0,1H36.08A.5.5,0,0,0,36.58,44.41Zm-27.8-1.7A1.5,1.5,0,0,0,10.05,41L8.6,30.84a1.5,1.5,0,0,0-1.69-1.28,1.52,1.52,0,0,0-1.28,1.7L7.08,41.43a1.5,1.5,0,0,0,1.48,1.29Z" />
        </g>
    </g>
</svg>