<svg xmlns="http://www.w3.org/2000/svg" viewBox="0 0 31.93 65.86"><defs><style>.cls-1{fill:#88ffd7;}</style></defs><g id="레이어_2" data-name="레이어 2"><g id="레이어_1-2" data-name="레이어 1"><path class="cls-1" d="M11.39,64.17S9.18,61.71,9,59.89M2,25.2H16.13m0,24.1H1.59M10.39,9h5.74m4.21,55.16s2.2-2.47,2.42-4.29m7-34.69H15.59M30.14,49.28H15.59M21.33,9H15.59M11,64a7.07,7.07,0,0,0,5.2,1.87.5.5,0,0,0,.5-.5.5.5,0,0,0-.5-.5c-3.4,0-4.67-1.76-4.72-1.84a.51.51,0,0,0-.34-.21.5.5,0,0,0-.39.11,8,8,0,0,1-5.67,1.92,3.55,3.55,0,0,1-2.62-1C1,62.28,1,59.51,1,59.48V53.14a9.53,9.53,0,0,1,1.13-4A.52.52,0,0,0,2,48.5,5.83,5.83,0,0,1,1,46V28.68A5.68,5.68,0,0,1,2.47,25.1a.49.49,0,0,0,0-.67A5.32,5.32,0,0,1,1,20.59a4.48,4.48,0,0,1,1.47-2.82l8.37-8.88A.48.48,0,0,0,11,8.55V1h5.24a.5.5,0,0,0,.5-.5.5.5,0,0,0-.5-.5H10.49a.5.5,0,0,0-.5.5V8.35L1.8,17A5.37,5.37,0,0,0,0,20.49a6,6,0,0,0,1.44,4.25A6.46,6.46,0,0,0,0,28.68V46.13a7.57,7.57,0,0,0,1.08,2.8A10.23,10.23,0,0,0,0,53.14v6.33c0,.13,0,3.2,1.77,5A4.43,4.43,0,0,0,5,65.82H5a3.54,3.54,0,0,0,.63,0A9.07,9.07,0,0,0,11,64Zm.79.12a.5.5,0,0,0,0-.71c-.58-.65-2.14-2.64-2.3-4A.49.49,0,0,0,9,59a.5.5,0,0,0-.44.55c.23,2,2.45,4.46,2.55,4.56a.48.48,0,0,0,.37.17A.46.46,0,0,0,11.82,64.1Zm4.91-39.35a.5.5,0,0,0-.5-.5H2.12a.5.5,0,0,0,0,1H16.23A.5.5,0,0,0,16.73,24.75Zm0,24.11a.5.5,0,0,0-.5-.5H1.69a.5.5,0,0,0-.5.5.5.5,0,0,0,.5.5H16.23A.5.5,0,0,0,16.73,48.86Zm0-40.31a.5.5,0,0,0-.5-.5H10.49a.5.5,0,0,0-.5.5.5.5,0,0,0,.5.5h5.74A.5.5,0,0,0,16.73,8.55ZM26.82,65.8a4.51,4.51,0,0,0,3.33-1.32c1.81-1.83,1.78-4.91,1.78-5V53.12a10.28,10.28,0,0,0-1.09-4.22A7.62,7.62,0,0,0,31.93,46V28.65a6.4,6.4,0,0,0-1.47-3.94,6.06,6.06,0,0,0,1.45-4.25,5.41,5.41,0,0,0-1.74-3.41L21.93,8.32V.5a.5.5,0,0,0-.5-.5H15.7a.5.5,0,0,0-.5.5.5.5,0,0,0,.5.5h5.23V8.52a.48.48,0,0,0,.14.34l8.42,8.92a4.49,4.49,0,0,1,1.42,2.78,5.29,5.29,0,0,1-1.48,3.84.5.5,0,0,0,0,.68,5.6,5.6,0,0,1,1.47,3.57V45.93a5.7,5.7,0,0,1-1.05,2.55.5.5,0,0,0-.08.59,9.69,9.69,0,0,1,1.13,4v6.35s0,2.79-1.5,4.32a3.55,3.55,0,0,1-2.69,1,7.83,7.83,0,0,1-5.6-1.92.51.51,0,0,0-.38-.11.53.53,0,0,0-.35.21c-.05.08-1.31,1.85-4.71,1.85a.5.5,0,0,0-.5.5.5.5,0,0,0,.5.5A7,7,0,0,0,20.89,64a9.07,9.07,0,0,0,5.35,1.88A5.41,5.41,0,0,0,26.82,65.8Zm-6-1.76c.09-.11,2.32-2.61,2.55-4.56a.51.51,0,0,0-.44-.56.49.49,0,0,0-.56.44c-.19,1.64-2.27,4-2.3,4a.5.5,0,0,0,.38.83A.54.54,0,0,0,20.81,64Zm9.5-39.32a.5.5,0,0,0-.5-.5H15.7a.5.5,0,0,0-.5.5.5.5,0,0,0,.5.5H29.81A.5.5,0,0,0,30.31,24.72Zm.43,24.11a.5.5,0,0,0-.5-.5H15.7a.5.5,0,0,0,0,1H30.24A.5.5,0,0,0,30.74,48.83ZM21.93,8.52a.5.5,0,0,0-.5-.5H15.7a.5.5,0,0,0,0,1h5.73A.5.5,0,0,0,21.93,8.52Zm4.7,34.34V30.48a1.5,1.5,0,0,0-3,0V42.86a1.5,1.5,0,0,0,3,0Z"/></g></g></svg>