<svg xmlns="http://www.w3.org/2000/svg" viewBox="0 0 37.03 59">
    <defs>
        <style>
            .cls-1 {
                opacity: 0.6;
            }

            .cls-2 {
                fill: #c9f3f4;
            }

            .cls-3,
            .cls-4 {
                fill: none;
                stroke-linecap: round;
                stroke-linejoin: round;
            }

            .cls-3 {
                stroke: #88ffd7;
            }

            .cls-4 {
                stroke: #fcfcfc;
                stroke-width: 3px;
                opacity: 0.2;
            }
        </style>
    </defs>
    <g id="레이어_2" data-name="레이어 2">
        <g id="레이어_1-2" data-name="레이어 1">
            <g class="cls-1">
                <rect class="cls-2" y="0.16" width="36" height="58" rx="6.62" />
                <rect class="cls-2" x="3.56" y="3.66" width="28.88" height="51" rx="6.62" />
                <line class="cls-2" x1="5.46" y1="53.45" x2="2.19" y2="56.55" />
                <line class="cls-2" x1="30.35" y1="53.45" x2="33.62" y2="56.55" />
                <line class="cls-2" x1="5.54" y1="5.19" x2="2.27" y2="2.09" />
                <line class="cls-2" x1="30.43" y1="5.19" x2="33.7" y2="2.09" />
                <path class="cls-2" d="M3.67,10.12s5.42,1.09,6-6" />
                <path class="cls-2" d="M32.78,9.86s-5.43,1.09-6-6" />
                <path class="cls-2" d="M32.37,48s-5.43-1.1-6,6" />
                <path class="cls-2" d="M4.26,48.28s5.43-1.1,6,6" />
            </g>
            <rect class="cls-3" x="0.53" y="0.5" width="36" height="58" rx="6.62" />
            <rect class="cls-3" x="4.08" y="4" width="28.88" height="51" rx="6.62" />
            <line class="cls-3" x1="5.99" y1="53.8" x2="2.72" y2="56.9" />
            <line class="cls-3" x1="30.88" y1="53.8" x2="34.15" y2="56.9" />
            <line class="cls-3" x1="6.07" y1="5.53" x2="2.8" y2="2.43" />
            <line class="cls-3" x1="30.96" y1="5.53" x2="34.23" y2="2.43" />
            <path class="cls-3" d="M4.19,10.46s5.43,1.09,6-6" />
            <path class="cls-3" d="M33.3,10.2s-5.42,1.1-6-6" />
            <path class="cls-3" d="M32.9,48.36s-5.43-1.09-6,6" />
            <path class="cls-3" d="M4.78,48.62s5.43-1.09,6,6" />
            <line class="cls-4" x1="9" y1="14.88" x2="9" y2="27.26" />
        </g>
    </g>
</svg>