<svg xmlns="http://www.w3.org/2000/svg" viewBox="0 0 40.32 65.11"><defs><style>.cls-1{fill:#88ffd7;}</style></defs><g id="레이어_2" data-name="레이어 2"><g id="레이어_1-2" data-name="레이어 1"><path class="cls-1" d="M4.51,65.11C1.2,65.11.11,61.76,0,60V.5A.5.5,0,0,1,.5,0H13.8a.5.5,0,0,1,.5.5v7a11.06,11.06,0,0,1,6.19,2.38.27.27,0,0,1,.07.08l19.66,27.2a.47.47,0,0,1,.1.3V59c0,5-5,6.06-5,6.07ZM1,1V60c0,.14.31,4.15,3.51,4.15H35.17c.08,0,4.15-.91,4.15-5.08V37.57l-19.53-27a10.22,10.22,0,0,0-6-2.12.5.5,0,0,1-.5-.5V1ZM14.3,7.93a.5.5,0,0,0-.5-.5H.5a.5.5,0,0,0-.5.5.5.5,0,0,0,.5.5H13.8A.5.5,0,0,0,14.3,7.93Zm3.19,34a3.7,3.7,0,0,1-2.33-.79c-1.23-1-1.86-2.77-1.86-5.31V21.14c-.16-1.68-.38-5.6,1.07-6.11,1-.35,1.92.84,2.64,1.92L31.82,38.24c.4.31,1.64,1.38,1.29,2.42-.28.83-1.39,1.22-3.51,1.22H18.1A3.34,3.34,0,0,1,17.49,41.93ZM14.71,16h0c-.4.14-.66,2.4-.4,5.1V35.83c0,2.22.5,3.74,1.49,4.53a2.7,2.7,0,0,0,2.15.53H29.6c2.35,0,2.56-.52,2.56-.54.09-.27-.45-.93-1-1.35a.38.38,0,0,1-.11-.11L16.18,17.51C15.19,16,14.75,16,14.71,16Zm25.61,40.1a.5.5,0,0,0-.5-.5H.5a.5.5,0,0,0-.5.5.5.5,0,0,0,.5.5H39.82A.5.5,0,0,0,40.32,56.07ZM6.43,50.71V38.33a1.5,1.5,0,0,0-3,0V50.71a1.5,1.5,0,0,0,3,0Z"/></g></g></svg>