<svg xmlns="http://www.w3.org/2000/svg" viewBox="0 0 37 59">
    <defs>
        <style>
            .cls-1 {
                fill: #88ffd7;
            }
        </style>
    </defs>
    <g id="레이어_2" data-name="레이어 2">
        <g id="레이어_1-2" data-name="레이어 1">
            <path class="cls-1"
                d="M29.88,0H7.12A7.12,7.12,0,0,0,0,7.12V51.88A7.09,7.09,0,0,0,2.21,57a.55.55,0,0,0,.12.21.47.47,0,0,0,.27.14A7.09,7.09,0,0,0,7.12,59H29.88A7.12,7.12,0,0,0,37,51.88V7.12A7.12,7.12,0,0,0,29.88,0Zm0,1a6,6,0,0,1,3.74,1.29L30.73,5A7.09,7.09,0,0,0,26.32,3.5H10.68A7,7,0,0,0,6.26,5.05L3.36,2.3A6.09,6.09,0,0,1,7.12,1Zm-2.5,53.4h0c.18-2.24.87-3.84,2.07-4.74a4.47,4.47,0,0,1,3-.84A6.13,6.13,0,0,1,27.38,54.4ZM4.6,49.09a.57.57,0,0,0,.26,0,4.53,4.53,0,0,1,3.31.79c1.17.88,1.86,2.42,2.06,4.58A6.14,6.14,0,0,1,4.6,49.09Zm5-44.49c-.2,2.15-.89,3.69-2.05,4.58a4.49,4.49,0,0,1-3,.83A6.11,6.11,0,0,1,9.64,4.6Zm1.6,49.9c-.21-2.51-1-4.33-2.46-5.4a5.55,5.55,0,0,0-4.12-1l-.1,0V11h.38a5.36,5.36,0,0,0,3.24-1c1.44-1.08,2.27-2.92,2.47-5.46v0H26.38c.23,2.41,1.05,4.17,2.43,5.22a5.4,5.4,0,0,0,3.25,1h.38V47.81a5.41,5.41,0,0,0-3.59,1c-1.43,1.08-2.26,2.92-2.46,5.47a.41.41,0,0,0,0,.19H11.24ZM29.42,8.92a6,6,0,0,1-2-4.32,6.12,6.12,0,0,1,5,5.15A4.4,4.4,0,0,1,29.42,8.92ZM1,51.88V7.12A6.11,6.11,0,0,1,2.62,3l2.9,2.75a7.07,7.07,0,0,0-2,4.89V48.38a7.06,7.06,0,0,0,2.09,5l0,0L2.75,56.15A6.08,6.08,0,0,1,1,51.88ZM7.12,58a6.1,6.1,0,0,1-3.61-1.19l2.8-2.65a.41.41,0,0,0,.07-.11,7.14,7.14,0,0,0,4.3,1.45H26.32a7.07,7.07,0,0,0,4.17-1.36l0,0,2.88,2.73A6.08,6.08,0,0,1,29.88,58ZM36,51.88a6.12,6.12,0,0,1-1.84,4.37l-2.9-2.75a7.11,7.11,0,0,0,2.18-5.12V10.62a7.1,7.1,0,0,0-2-4.91L34.36,3A6,6,0,0,1,36,7.12Z" />
            <path class="cls-1"
                d="M9,13.38a1.5,1.5,0,0,0-1.5,1.5V27.26a1.5,1.5,0,0,0,3,0V14.88A1.5,1.5,0,0,0,9,13.38Z" />
        </g>
    </g>
</svg>