<svg xmlns="http://www.w3.org/2000/svg" viewBox="0 0 41 61.38">
    <defs>
        <style>
            .cls-1 {
                fill: #c9f3f4;
                opacity: 0.6;
            }

            .cls-2,
            .cls-3 {
                fill: none;
                stroke-linecap: round;
                stroke-linejoin: round;
            }

            .cls-2 {
                stroke: #88ffd7;
            }

            .cls-3 {
                stroke: #fcfcfc;
                stroke-width: 3px;
                opacity: 0.2;
            }
        </style>
    </defs>
    <g id="레이어_2" data-name="레이어 2">
        <g id="레이어_1-2" data-name="레이어 1">
            <path class="cls-1"
                d="M38.85,19.44S38.47.93,22.46.93A3.42,3.42,0,0,1,21.78,2h-3A3.23,3.23,0,0,1,18,.87C2,.87,1.64,19.39,1.64,19.39.09,19.39.25,21,.25,21v4.93c0,2.12,2.35,1.74,2.35,1.74L6.26,58H7.81v3.23H20.15v-.54h.19v.6H32.68V58h1.54l3.67-30.28s2.35.38,2.35-1.74V21.07S40.4,19.44,38.85,19.44Z" />
            <path class="cls-2"
                d="M20.41,60.82H8.06V57.59H6.52L2.86,27.31S.5,27.69.5,25.57V20.64S.35,19,1.89,19C1.89,19,2.28.5,18.28.5c0,0,.58,1.72,2.13,1.72" />
            <line class="cls-2" x1="1.89" y1="19.01" x2="20.41" y2="19.01" />
            <line class="cls-2" x1="2.86" y1="27.31" x2="20.41" y2="27.31" />
            <line class="cls-2" x1="7.2" y1="57.59" x2="20.41" y2="57.59" />
            <line class="cls-2" x1="5.79" y1="51.59" x2="20.41" y2="51.59" />
            <line class="cls-2" x1="4.92" y1="44.35" x2="20.41" y2="44.35" />
            <path class="cls-2"
                d="M20.59,60.88H32.94V57.64h1.54l3.66-30.27s2.36.38,2.36-1.74V20.7s.15-1.63-1.39-1.63c0,0-.39-18.51-16.39-18.51,0,0-.58,1.72-2.13,1.72" />
            <line class="cls-2" x1="39.11" y1="19.07" x2="20.59" y2="19.07" />
            <line class="cls-2" x1="38.14" y1="27.37" x2="20.59" y2="27.37" />
            <line class="cls-2" x1="33.8" y1="57.64" x2="20.59" y2="57.64" />
            <line class="cls-2" x1="35.21" y1="51.65" x2="20.59" y2="51.65" />
            <line class="cls-2" x1="36.08" y1="44.41" x2="20.59" y2="44.41" />
            <line class="cls-3" x1="7.12" y1="31.05" x2="8.56" y2="41.22" />
        </g>
    </g>
</svg>