<svg xmlns="http://www.w3.org/2000/svg" viewBox="0 0 27.47 15.01"><defs><style>.cls-1{fill:#c6c6c6;}.cls-2,.cls-3{fill:none;stroke:#0bd893;stroke-width:0.7px;}.cls-2{stroke-linecap:round;stroke-linejoin:round;}.cls-3{stroke-miterlimit:10;}</style></defs><g id="레이어_2" data-name="레이어 2"><g id="레이어_12" data-name="레이어 12"><path class="cls-1" d="M21.43,3.25C20.21.39,16,0,15.78,0A8.89,8.89,0,0,0,8.67,3.08a.34.34,0,0,0,0,.35A3.89,3.89,0,0,0,10,5a1.06,1.06,0,0,1,.11-.44.77.77,0,0,1,.19-.21,3.25,3.25,0,0,1-.9-1A8.46,8.46,0,0,1,15.75.7s3.81.33,5,2.66a6,6,0,0,1-3.55,2.28,3.2,3.2,0,0,1,.62.39,1,1,0,0,1,.09.13,6.23,6.23,0,0,0,3.54-2.61A.35.35,0,0,0,21.43,3.25Z"/><path class="cls-1" d="M24.5,6.17h0s-3.09-.11-3.72-2.71a.25.25,0,0,1,0-.17A4.07,4.07,0,0,1,24.46.53a.33.33,0,0,1,.35.19.35.35,0,0,1-.06.4,3.1,3.1,0,0,0,0,4.45.36.36,0,0,1,.08.39A.37.37,0,0,1,24.5,6.17Zm-3-2.78a2.84,2.84,0,0,0,2.17,1.94,3.59,3.59,0,0,1,.05-3.94A3.3,3.3,0,0,0,21.47,3.39Z"/><path class="cls-1" d="M12.86,4.39h0a.66.66,0,0,1,.39.09.75.75,0,0,1,.24.15A14.79,14.79,0,0,0,13.35.68a.35.35,0,1,0-.68.15A14.74,14.74,0,0,1,12.86,4.39Z"/><path class="cls-1" d="M11.41,4a.82.82,0,0,1-.81-.82.81.81,0,0,1,.81-.81.82.82,0,0,1,.82.81A.82.82,0,0,1,11.41,4Zm0-.93a.12.12,0,0,0-.12.11c0,.13.24.13.24,0A.12.12,0,0,0,11.41,3.08Z"/><path class="cls-1" d="M16.47,4a.36.36,0,0,1-.2-.06.34.34,0,0,1-.14-.33l.05-.46L15,3.83a.36.36,0,0,1-.48-.12.34.34,0,0,1,.12-.48l1.79-1.08a.35.35,0,0,1,.37,0,.33.33,0,0,1,.15.33L16.9,3l.53-.28a.34.34,0,0,1,.47.14.35.35,0,0,1-.14.47l-1.12.6A.33.33,0,0,1,16.47,4Z"/><path class="cls-1" d="M21.25,3.42A.38.38,0,0,1,21,3.33a.35.35,0,0,1,0-.49,3.34,3.34,0,0,1,2.65-1,.36.36,0,0,1,.35.36.35.35,0,0,1-.35.34h-.07a2.85,2.85,0,0,0-2.06.75A.38.38,0,0,1,21.25,3.42Z"/><path class="cls-1" d="M23.48,4.64a3,3,0,0,1-2.63-1.22A.35.35,0,0,1,21,2.94a.34.34,0,0,1,.48.12,2.4,2.4,0,0,0,2.09.88h0a.35.35,0,0,1,0,.7Z"/><path class="cls-2" d="M.35,9.52s3.7-5.06,11.76-5.06c0,0,7.2.58,9.17,5.22,0,0-2.67,5-10.86,5C10.42,14.66,2.28,13.8.35,9.52Z"/><path class="cls-2" d="M21.28,9.68s1-3.78,5.84-4.31c0,0-4.2,4.31,0,8.51C27.12,13.88,22.27,13.75,21.28,9.68Z"/><path class="cls-2" d="M7.34,5.16a24.73,24.73,0,0,1,0,8.8"/><circle class="cls-3" cx="4.59" cy="9.35" r="0.8"/><polyline class="cls-2" points="10.46 9.93 13.55 8.08 13.3 10.1 15.23 9.07"/><path class="cls-2" d="M21.53,9.15a5.52,5.52,0,0,1,4.11-1.48"/><path class="cls-2" d="M21.36,9.44a4.62,4.62,0,0,0,4.11,1.81"/></g></g></svg>