<svg xmlns="http://www.w3.org/2000/svg" viewBox="0 0 36.28 42.6"><defs><style>.cls-1{fill:#fff;}</style></defs><g id="레이어_2" data-name="레이어 2"><g id="레이어_6" data-name="레이어 6"><path class="cls-1" d="M36.13,25.22c0-.06,0-.12,0-.18.05-.41.1-.8.13-1.15,0,0,0-.05,0-.07a18,18,0,0,0-1.76-8.67,17.73,17.73,0,0,0-3.1-4.5,16.32,16.32,0,0,0-2.31-2.13l.28-.42a1.46,1.46,0,0,0-2.43-1.61l-1.05,1.6a1.46,1.46,0,0,0-.21,1.11,1.42,1.42,0,0,0,.65.92,17,17,0,0,1,1.74,1.33v0c.38.33.75.68,1.1,1l.32.38.13.14a15,15,0,0,1,2.26,3.38,15.19,15.19,0,0,1,1.42,8,19.31,19.31,0,0,1-2.43,7.27h0l-.5.9c-.13,0-.26,0-.4,0a5,5,0,0,0-4.88,3.89A15.5,15.5,0,0,1,19.94,38v-3.8a1.08,1.08,0,0,0,.15-.28,11.38,11.38,0,0,1,3.49-4.49c.86-.54,5.56-3.66,5.81-7.54a1.45,1.45,0,1,0-2.9-.2C26.34,23.82,23.1,26.29,22,27l-.15.1a17.11,17.11,0,0,0-1.88,1.77V23.31s0,0,0-.06a6.55,6.55,0,0,1,2-2.61c.66-.42,3.75-2.52,3.93-5.21A1.46,1.46,0,1,0,23,15.24c-.06,1-1.6,2.33-2.63,3l-.14.1c-.12.09-.21.18-.32.28V10.85a1.46,1.46,0,1,0-2.91,0v7.87c-.15-.14-.29-.27-.46-.41l-.15-.1c-.88-.54-2.56-2-2.63-3a1.46,1.46,0,1,0-2.91.19c.18,2.69,3.28,4.79,3.93,5.21a6.69,6.69,0,0,1,2,2.6,2,2,0,0,0,.19.36V29a16.59,16.59,0,0,0-2-1.94l-.15-.1c-1.12-.69-4.37-3.15-4.51-5.31a1.47,1.47,0,0,0-1.55-1.35,1.45,1.45,0,0,0-1.36,1.55c.26,3.88,5,7,5.82,7.54a11.4,11.4,0,0,1,3.48,4.49,1.61,1.61,0,0,0,.3.49v3.69a16.24,16.24,0,0,1-5.11-1.18A5,5,0,0,0,7,32.57a4.34,4.34,0,0,0-.63.06,14.94,14.94,0,0,1-1.93-3,15.24,15.24,0,0,1,5.3-19.26.43.43,0,0,1,0,0A5.58,5.58,0,1,0,2.27,2.24l0,0a4.81,4.81,0,0,0-.49.82,6.11,6.11,0,0,0-.51,1.51h0A11.39,11.39,0,0,0,1,6.37a1.46,1.46,0,0,0,1.4,1.51h.06A1.45,1.45,0,0,0,3.92,6.49a7.84,7.84,0,0,1,.19-1.3,1.87,1.87,0,0,1,.08-.34c0-.12.07-.22.11-.32A2.67,2.67,0,1,1,8.39,7.69l0,0h0a18,18,0,0,0-4.8,26.14A5,5,0,0,0,2,37.58a5,5,0,0,0,9.47,2.25,19.16,19.16,0,0,0,6.65,1.22,18.58,18.58,0,0,0,7.28-1.48,5,5,0,1,0,7.73-5.88l.84-1.5h0a22.06,22.06,0,0,0,2.21-7ZM7,39.69a2.11,2.11,0,1,1,2.1-2.11A2.11,2.11,0,0,1,7,39.69Zm23,0a2.11,2.11,0,1,1,2.11-2.11A2.11,2.11,0,0,1,30,39.69Z"/></g></g></svg>