<svg xmlns="http://www.w3.org/2000/svg" viewBox="0 0 17.48 21.18"><defs><style>.cls-1,.cls-2{fill:none;stroke-linecap:round;stroke-linejoin:round;stroke-width:0.7px;}.cls-1{stroke:#c6c6c6;}.cls-2{stroke:#0bd893;}.cls-3{fill:#c6c6c6;}</style></defs><g id="레이어_2" data-name="레이어 2"><g id="레이어_12" data-name="레이어 12"><polyline class="cls-1" points="1.05 13.37 3.27 20.83 9 20.83"/><polyline class="cls-1" points="16.43 13.37 14.21 20.83 8.47 20.83"/><path class="cls-2" d="M6.9.77S5.54,2.52,7,3.7A1.86,1.86,0,0,1,7.3,6.21L6.78,7A1.74,1.74,0,0,0,7,9.63l.11.08c1.69,1.12.43,1.24.43,1.24"/><path class="cls-2" d="M4.67.77s-1.35,1.75.1,2.93a1.86,1.86,0,0,1,.3,2.51L4.55,7a1.74,1.74,0,0,0,.26,2.61l.11.08c1.7,1.12.43,1.24.43,1.24"/><path class="cls-2" d="M2.45.77S1.09,2.52,2.54,3.7a1.87,1.87,0,0,1,.31,2.51L2.32,7a1.75,1.75,0,0,0,.26,2.61l.11.08c1.7,1.12.43,1.24.43,1.24"/><rect class="cls-1" x="0.35" y="11.29" width="16.78" height="2.28"/><rect class="cls-3" x="0.02" width="17.43" height="0.71"/><rect class="cls-3" x="0.02" y="1.11" width="17.43" height="0.71"/><ellipse class="cls-1" cx="8.74" cy="17.06" rx="3.41" ry="2.18"/></g></g></svg>