<svg xmlns="http://www.w3.org/2000/svg" viewBox="0 0 25.48 16.35"><defs><style>.cls-1,.cls-3{fill:none;stroke-linecap:round;stroke-linejoin:round;stroke-width:0.7px;}.cls-1{stroke:#0bd893;}.cls-2{fill:#0bd893;}.cls-3{stroke:#c6c6c6;}</style></defs><g id="레이어_2" data-name="레이어 2"><g id="레이어_12" data-name="레이어 12"><path class="cls-1" d="M.51,8.25s.57,1.57,2.78.64c0,0,2.48-.92,3.27.78a1.88,1.88,0,0,1-.64,2.21s-2.42,1.92-.29,3.2c0,0,15.85,5.11,14.64-8.68,0,0-.57-7.81-12.08-5.68C8.19.72-1,3.13.51,8.25Z"/><ellipse class="cls-2" cx="10.89" cy="12.77" rx="2.35" ry="1.42"/><ellipse class="cls-2" cx="17.19" cy="5.75" rx="1.27" ry="1.42" transform="translate(-0.93 6.08) rotate(-19.54)"/><ellipse class="cls-2" cx="13.97" cy="3.34" rx="1.12" ry="1.25" transform="translate(4.94 14.51) rotate(-64.48)"/><ellipse class="cls-2" cx="10.48" cy="2.98" rx="1.25" ry="1.12" transform="translate(-0.08 5.64) rotate(-30)"/><path class="cls-3" d="M21.54,11.4s1.6.41.46,2.32a5.25,5.25,0,0,1-2.22,1.87s.4-1,.2-1.36C20,14.23,18.86,11.29,21.54,11.4Z"/><path class="cls-3" d="M21.93,11.55l2.12-6.46s1.85-3.77.7-4.08L24,.87c-1.15-.32-1.46,3.86-1.46,3.86l-1.45,6.65"/><line class="cls-3" x1="22.34" y1="10.24" x2="21.51" y2="10.01"/></g></g></svg>