<svg xmlns="http://www.w3.org/2000/svg" viewBox="0 0 18.5 22.95"><defs><style>.cls-1{fill:#c6c6c6;}.cls-2{fill:none;stroke:#0bd893;stroke-linecap:round;stroke-linejoin:round;stroke-width:0.7px;}</style></defs><g id="레이어_2" data-name="레이어 2"><g id="레이어_12" data-name="레이어 12"><path class="cls-1" d="M7.84,13.39,9,12.08a1,1,0,0,1-.27-.18l-.26-.28L7.23,13a.32.32,0,0,0-.08.21,3.8,3.8,0,0,1-.53,1.82.38.38,0,0,0-.08.17,1.73,1.73,0,0,0,.2,1.18,8,8,0,0,1-.25,5,.39.39,0,0,0,0,.26l.29.57H3.05l.33-.34a.37.37,0,0,0,.08-.39,10.74,10.74,0,0,1-.17-5.81.34.34,0,0,0-.1-.32A12.24,12.24,0,0,1,.7,12.26a1.56,1.56,0,0,1,.67.47c.49.58,1.19,1.24,1.71,1.06.14,0,.38-.2.4-.69l0-.85a.51.51,0,0,0,0-.13,6.88,6.88,0,0,1-.8-2.9,1.39,1.39,0,0,1,.27.46c.27.88.68,2,1.09,2.16a.53.53,0,0,0,.37,0c.16-.06.34-.13.46-1.72,0-.31,0-.58,0-.83s0-.82,0-.88S5,8.54,5,8.9c0,2.7.26,2.84.45,2.93a.35.35,0,0,0,.44-.14l.62-1c.09-.15.19-.29.28-.43l-.46-.57c-.13.18-.27.38-.42.63l-.17.29c0-.47,0-1.11,0-1.67a1.25,1.25,0,0,0-.26-1A.71.71,0,0,0,5,7.73H5a.61.61,0,0,0-.47.16c-.27.24-.3.68-.33,1.39,0,.24,0,.51,0,.81s0,.51-.07.68c-.15-.34-.33-.83-.49-1.32s-.43-.91-.89-1a.59.59,0,0,0-.52.2c-.62.56.1,2.5.61,3.66l0,.74a4.49,4.49,0,0,1-.9-.83c-.52-.51-.95-.74-1.33-.7a.66.66,0,0,0-.47.28c-.44.71,1.07,2.48,2.48,3.89a11.73,11.73,0,0,0,.17,5.82l-.27.27a.34.34,0,0,0-.11.25v.51a.35.35,0,0,0,.35.35H7.18a.35.35,0,0,0,.34-.35v-.38a.37.37,0,0,0,0-.15l-.29-.57a8.29,8.29,0,0,0,.16-5.39,1,1,0,0,1-.14-.65A4.59,4.59,0,0,0,7.84,13.39Z"/><path class="cls-1" d="M5,21.13a.35.35,0,0,1-.35-.35v-4A.35.35,0,0,1,5,16.39a.34.34,0,0,1,.35.35v4A.35.35,0,0,1,5,21.13Z"/><path class="cls-1" d="M6,20.84H5.94a.36.36,0,0,1-.26-.43,10.94,10.94,0,0,0,.05-3.32.34.34,0,0,1,.3-.39.34.34,0,0,1,.39.29,11.18,11.18,0,0,1-.06,3.59A.35.35,0,0,1,6,20.84Z"/><path class="cls-1" d="M4,20.84a.35.35,0,0,1-.34-.27A11.5,11.5,0,0,1,3.64,17a.35.35,0,0,1,.69.1,10.94,10.94,0,0,0,0,3.32.36.36,0,0,1-.25.43Z"/><path class="cls-2" d="M8.85,11.91S4.28,7.38,4.9,6.4c0,0,.45-.74,1.93.74,0,0,2.22,2.59,2.31.94l0-1.31S7.16,2.41,8,1.67c0,0,.57-.78,1.31,1,0,0,1,3.21,1.52,3,0,0,.21-.09.37-2.18s0-3.17.74-3.13c0,0,.7,0,.62,1.28,0,0-.08,3.78.37,4l.95-1.56s1.48-2.38,2-2.22c0,0,.62.33-.16,2,0,0-1.65,2.63-1.11,3,0,0,.37.29,1.35-.82,0,0,1.77-1.73,2.14-1.2a1.22,1.22,0,0,1-.21,1.11L15.84,8.29a6.46,6.46,0,0,1-.95,3.12,2.29,2.29,0,0,0,.29,1.52s1.23,3.17-.37,8L15.35,22v.58H8.48v-.78l.66-.66S7.66,17.62,8.85,11.91Z"/><line class="cls-2" x1="11.93" y1="13.65" x2="11.93" y2="19.85"/><path class="cls-2" d="M13.66,14.1a17.29,17.29,0,0,1-.08,5.3"/><path class="cls-2" d="M10.45,14.1a17,17,0,0,0,.08,5.3"/></g></g></svg>